<svg xmlns="http://www.w3.org/2000/svg" viewBox="0 0 100 100">
  <defs>
    <linearGradient id="g" x1="0%" y1="0%" x2="100%" y2="100%">
      <stop offset="0%" stop-color="#4f46e5" />
      <stop offset="100%" stop-color="#312e81" />
    </linearGradient>
  </defs>
  <rect width="100" height="100" rx="24" fill="url(#g)"/>
  <path d="M35 25h16c12 0 18 6 18 14 0 7-5 12-11 13v1c7 1 13 6 13 15 0 9-7 17-20 17H35V25zm8 20h7c6 0 9-3 9-8 0-5-3-7-9-7h-7v15zm0 24h9c6 0 11-3 11-10 0-7-4-10-11-10h-9v20z" fill="#ffffff"/>
</svg>
